<?xml version="1.0" encoding="UTF-8" standalone="no"?>
<!DOCTYPE svg PUBLIC "-//W3C//DTD SVG 1.1//EN"
 "http://www.w3.org/Graphics/SVG/1.1/DTD/svg11.dtd">
<!-- Generated by graphviz version 14.0.2 (20251019.1705)
 -->
<!-- Pages: 1 -->
<svg width="9189pt" height="1143pt"
 viewBox="0.00 0.00 9189.00 1143.00" xmlns="http://www.w3.org/2000/svg" xmlns:xlink="http://www.w3.org/1999/xlink">
<g id="graph0" class="graph" transform="scale(4.16667 4.16667) rotate(0) translate(4 270.38)">
<polygon fill="white" stroke="none" points="-4,4 -4,-270.38 2201.3,-270.38 2201.3,4 -4,4"/>
<!-- act_1 -->
<g id="node1" class="node">
<title>act_1</title>
<path fill="#e6f7ff" stroke="black" d="M212.2,-206C212.2,-206 128.2,-206 128.2,-206 122.2,-206 116.2,-200 116.2,-194 116.2,-194 116.2,-182 116.2,-182 116.2,-176 122.2,-170 128.2,-170 128.2,-170 212.2,-170 212.2,-170 218.2,-170 224.2,-176 224.2,-182 224.2,-182 224.2,-194 224.2,-194 224.2,-200 218.2,-206 212.2,-206"/>
<text xml:space="preserve" text-anchor="middle" x="170.2" y="-183.72" font-family="Arial" font-size="12.00">Submit Order</text>
</g>
<!-- act_2 -->
<g id="node2" class="node">
<title>act_2</title>
<path fill="#e6f7ff" stroke="black" d="M393.2,-206C393.2,-206 309.2,-206 309.2,-206 303.2,-206 297.2,-200 297.2,-194 297.2,-194 297.2,-182 297.2,-182 297.2,-176 303.2,-170 309.2,-170 309.2,-170 393.2,-170 393.2,-170 399.2,-170 405.2,-176 405.2,-182 405.2,-182 405.2,-194 405.2,-194 405.2,-200 399.2,-206 393.2,-206"/>
<text xml:space="preserve" text-anchor="middle" x="351.2" y="-183.72" font-family="Arial" font-size="12.00">Process Order</text>
</g>
<!-- act_1&#45;&gt;act_2 -->
<g id="edge2" class="edge">
<title>act_1&#45;&gt;act_2</title>
<path fill="none" stroke="black" d="M224.42,-188C243.64,-188 265.53,-188 285.62,-188"/>
<polygon fill="black" stroke="black" points="285.36,-191.5 295.36,-188 285.36,-184.5 285.36,-191.5"/>
</g>
<!-- gate_1 -->
<g id="node3" class="node">
<title>gate_1</title>
<polygon fill="#ffffcc" stroke="black" points="507,-216.8 478.2,-188 507,-159.2 535.8,-188 507,-216.8"/>
<text xml:space="preserve" text-anchor="middle" x="507" y="-175.97" font-family="Arial" font-size="32.00">X</text>
<text xml:space="preserve" text-anchor="start" x="420.45" y="-145.9" font-family="Arial" font-size="14.00">Are parts</text>
<text xml:space="preserve" text-anchor="start" x="417.45" y="-130.15" font-family="Arial" font-size="14.00">available?</text>
</g>
<!-- act_2&#45;&gt;gate_1 -->
<g id="edge3" class="edge">
<title>act_2&#45;&gt;gate_1</title>
<path fill="none" stroke="black" d="M405.56,-188C425.58,-188 447.96,-188 466.5,-188"/>
<polygon fill="black" stroke="black" points="466.27,-191.5 476.27,-188 466.27,-184.5 466.27,-191.5"/>
</g>
<!-- act_3 -->
<g id="node4" class="node">
<title>act_3</title>
<path fill="#e6f7ff" stroke="black" d="M862.05,-266.38C862.05,-266.38 778.05,-266.38 778.05,-266.38 772.05,-266.38 766.05,-260.38 766.05,-254.38 766.05,-254.38 766.05,-227.62 766.05,-227.62 766.05,-221.62 772.05,-215.62 778.05,-215.62 778.05,-215.62 862.05,-215.62 862.05,-215.62 868.05,-215.62 874.05,-221.62 874.05,-227.62 874.05,-227.62 874.05,-254.38 874.05,-254.38 874.05,-260.38 868.05,-266.38 862.05,-266.38"/>
<text xml:space="preserve" text-anchor="middle" x="820.05" y="-250.97" font-family="Arial" font-size="12.00">Notify customer</text>
<text xml:space="preserve" text-anchor="middle" x="820.05" y="-236.72" font-family="Arial" font-size="12.00">of</text>
<text xml:space="preserve" text-anchor="middle" x="820.05" y="-222.47" font-family="Arial" font-size="12.00">unavailability</text>
</g>
<!-- gate_1&#45;&gt;act_3 -->
<g id="edge4" class="edge">
<title>gate_1&#45;&gt;act_3</title>
<path fill="none" stroke="black" d="M532.15,-192.11C579.41,-200.17 685.51,-218.25 754.59,-230.02"/>
<polygon fill="black" stroke="black" points="753.83,-233.44 764.28,-231.67 755.01,-226.54 753.83,-233.44"/>
<text xml:space="preserve" text-anchor="middle" x="578.92" y="-202.16" font-family="Times New Roman,serif" font-size="10.00">No</text>
</g>
<!-- act_4 -->
<g id="node5" class="node">
<title>act_4</title>
<path fill="#e6f7ff" stroke="black" d="M718.05,-153.25C718.05,-153.25 634.05,-153.25 634.05,-153.25 628.05,-153.25 622.05,-147.25 622.05,-141.25 622.05,-141.25 622.05,-128.75 622.05,-128.75 622.05,-122.75 628.05,-116.75 634.05,-116.75 634.05,-116.75 718.05,-116.75 718.05,-116.75 724.05,-116.75 730.05,-122.75 730.05,-128.75 730.05,-128.75 730.05,-141.25 730.05,-141.25 730.05,-147.25 724.05,-153.25 718.05,-153.25"/>
<text xml:space="preserve" text-anchor="middle" x="676.05" y="-137.85" font-family="Arial" font-size="12.00">Manufacture</text>
<text xml:space="preserve" text-anchor="middle" x="676.05" y="-123.6" font-family="Arial" font-size="12.00">product</text>
</g>
<!-- gate_1&#45;&gt;act_4 -->
<g id="edge5" class="edge">
<title>gate_1&#45;&gt;act_4</title>
<path fill="none" stroke="black" d="M526.24,-177.99C538.76,-171.47 555.91,-163.19 571.8,-157.75 584.09,-153.54 597.48,-149.92 610.41,-146.89"/>
<polygon fill="black" stroke="black" points="611.16,-150.31 620.15,-144.7 609.62,-143.48 611.16,-150.31"/>
<text xml:space="preserve" text-anchor="middle" x="578.92" y="-159.5" font-family="Times New Roman,serif" font-size="10.00">Yes</text>
</g>
<!-- Gateway_Merge_gate_1_14 -->
<g id="node13" class="node">
<title>Gateway_Merge_gate_1_14</title>
<polygon fill="#ffffcc" stroke="black" points="2044.3,-211.8 2015.5,-183 2044.3,-154.2 2073.1,-183 2044.3,-211.8"/>
<text xml:space="preserve" text-anchor="middle" x="2044.3" y="-170.97" font-family="Arial" font-size="32.00">X</text>
</g>
<!-- act_3&#45;&gt;Gateway_Merge_gate_1_14 -->
<g id="edge14" class="edge">
<title>act_3&#45;&gt;Gateway_Merge_gate_1_14</title>
<path fill="none" stroke="black" d="M874.26,-241.36C921.49,-241.65 992.36,-242 1054.05,-242 1054.05,-242 1054.05,-242 1914.7,-242 1953.73,-242 1993.86,-219.27 2018.68,-202.02"/>
<polygon fill="black" stroke="black" points="2020.42,-205.08 2026.49,-196.4 2016.33,-199.4 2020.42,-205.08"/>
</g>
<!-- act_5 -->
<g id="node6" class="node">
<title>act_5</title>
<path fill="#e6f7ff" stroke="black" d="M1006.05,-144.25C1006.05,-144.25 922.05,-144.25 922.05,-144.25 916.05,-144.25 910.05,-138.25 910.05,-132.25 910.05,-132.25 910.05,-119.75 910.05,-119.75 910.05,-113.75 916.05,-107.75 922.05,-107.75 922.05,-107.75 1006.05,-107.75 1006.05,-107.75 1012.05,-107.75 1018.05,-113.75 1018.05,-119.75 1018.05,-119.75 1018.05,-132.25 1018.05,-132.25 1018.05,-138.25 1012.05,-144.25 1006.05,-144.25"/>
<text xml:space="preserve" text-anchor="middle" x="964.05" y="-128.85" font-family="Arial" font-size="12.00">Perform quality</text>
<text xml:space="preserve" text-anchor="middle" x="964.05" y="-114.6" font-family="Arial" font-size="12.00">checks</text>
</g>
<!-- act_4&#45;&gt;act_5 -->
<g id="edge6" class="edge">
<title>act_4&#45;&gt;act_5</title>
<path fill="none" stroke="black" d="M730.51,-133.32C778.06,-131.82 847.7,-129.63 898.38,-128.04"/>
<polygon fill="black" stroke="black" points="898.46,-131.53 908.34,-127.72 898.24,-124.54 898.46,-131.53"/>
</g>
<!-- gate_2 -->
<g id="node7" class="node">
<title>gate_2</title>
<polygon fill="#ffffcc" stroke="black" points="1119.85,-152.8 1091.05,-124 1119.85,-95.2 1148.65,-124 1119.85,-152.8"/>
<text xml:space="preserve" text-anchor="middle" x="1119.85" y="-111.97" font-family="Arial" font-size="32.00">X</text>
<text xml:space="preserve" text-anchor="start" x="1044.92" y="-81.9" font-family="Arial" font-size="14.00">Is</text>
<text xml:space="preserve" text-anchor="start" x="1018.67" y="-66.15" font-family="Arial" font-size="14.00">production</text>
<text xml:space="preserve" text-anchor="start" x="1009.3" y="-50.4" font-family="Arial" font-size="14.00">complete and</text>
<text xml:space="preserve" text-anchor="start" x="1013.42" y="-34.65" font-family="Arial" font-size="14.00">quality met?</text>
</g>
<!-- act_5&#45;&gt;gate_2 -->
<g id="edge7" class="edge">
<title>act_5&#45;&gt;gate_2</title>
<path fill="none" stroke="black" d="M1018.41,-125.31C1038.58,-125.04 1061.13,-124.75 1079.75,-124.51"/>
<polygon fill="black" stroke="black" points="1079.6,-128.01 1089.55,-124.38 1079.51,-121.01 1079.6,-128.01"/>
</g>
<!-- act_6 -->
<g id="node8" class="node">
<title>act_6</title>
<path fill="#e6f7ff" stroke="black" d="M1474.9,-142C1474.9,-142 1390.9,-142 1390.9,-142 1384.9,-142 1378.9,-136 1378.9,-130 1378.9,-130 1378.9,-118 1378.9,-118 1378.9,-112 1384.9,-106 1390.9,-106 1390.9,-106 1474.9,-106 1474.9,-106 1480.9,-106 1486.9,-112 1486.9,-118 1486.9,-118 1486.9,-130 1486.9,-130 1486.9,-136 1480.9,-142 1474.9,-142"/>
<text xml:space="preserve" text-anchor="middle" x="1432.9" y="-119.72" font-family="Arial" font-size="12.00">Rework product</text>
</g>
<!-- gate_2&#45;&gt;act_6 -->
<g id="edge8" class="edge">
<title>gate_2&#45;&gt;act_6</title>
<path fill="none" stroke="black" d="M1149.28,-124C1198.33,-124 1300.05,-124 1367.13,-124"/>
<polygon fill="black" stroke="black" points="1366.89,-127.5 1376.89,-124 1366.89,-120.5 1366.89,-127.5"/>
<text xml:space="preserve" text-anchor="middle" x="1191.77" y="-125.75" font-family="Times New Roman,serif" font-size="10.00">No</text>
</g>
<!-- act_7 -->
<g id="node9" class="node">
<title>act_7</title>
<path fill="#e6f7ff" stroke="black" d="M1330.9,-36C1330.9,-36 1246.9,-36 1246.9,-36 1240.9,-36 1234.9,-30 1234.9,-24 1234.9,-24 1234.9,-12 1234.9,-12 1234.9,-6 1240.9,0 1246.9,0 1246.9,0 1330.9,0 1330.9,0 1336.9,0 1342.9,-6 1342.9,-12 1342.9,-12 1342.9,-24 1342.9,-24 1342.9,-30 1336.9,-36 1330.9,-36"/>
<text xml:space="preserve" text-anchor="middle" x="1288.9" y="-13.72" font-family="Arial" font-size="12.00">Ship order</text>
</g>
<!-- gate_2&#45;&gt;act_7 -->
<g id="edge9" class="edge">
<title>gate_2&#45;&gt;act_7</title>
<path fill="none" stroke="black" d="M1130.27,-104.98C1140.83,-85.72 1159.77,-56.59 1184.65,-40.75 1196.2,-33.4 1209.79,-28.4 1223.25,-25"/>
<polygon fill="black" stroke="black" points="1223.99,-28.42 1233,-22.84 1222.47,-21.59 1223.99,-28.42"/>
<text xml:space="preserve" text-anchor="middle" x="1191.77" y="-42.5" font-family="Times New Roman,serif" font-size="10.00">Yes</text>
</g>
<!-- Gateway_Merge_gate_2_11 -->
<g id="node12" class="node">
<title>Gateway_Merge_gate_2_11</title>
<polygon fill="#ffffcc" stroke="black" points="1913.7,-152.8 1884.9,-124 1913.7,-95.2 1942.5,-124 1913.7,-152.8"/>
<text xml:space="preserve" text-anchor="middle" x="1913.7" y="-111.97" font-family="Arial" font-size="32.00">X</text>
</g>
<!-- act_6&#45;&gt;Gateway_Merge_gate_2_11 -->
<g id="edge12" class="edge">
<title>act_6&#45;&gt;Gateway_Merge_gate_2_11</title>
<path fill="none" stroke="black" d="M1486.97,-124C1583.82,-124 1787.16,-124 1873.06,-124"/>
<polygon fill="black" stroke="black" points="1872.86,-127.5 1882.86,-124 1872.86,-120.5 1872.86,-127.5"/>
</g>
<!-- act_8 -->
<g id="node10" class="node">
<title>act_8</title>
<path fill="#e6f7ff" stroke="black" d="M1618.9,-36C1618.9,-36 1534.9,-36 1534.9,-36 1528.9,-36 1522.9,-30 1522.9,-24 1522.9,-24 1522.9,-12 1522.9,-12 1522.9,-6 1528.9,0 1534.9,0 1534.9,0 1618.9,0 1618.9,0 1624.9,0 1630.9,-6 1630.9,-12 1630.9,-12 1630.9,-24 1630.9,-24 1630.9,-30 1624.9,-36 1618.9,-36"/>
<text xml:space="preserve" text-anchor="middle" x="1576.9" y="-13.72" font-family="Arial" font-size="12.00">Send invoice</text>
</g>
<!-- act_7&#45;&gt;act_8 -->
<g id="edge10" class="edge">
<title>act_7&#45;&gt;act_8</title>
<path fill="none" stroke="black" d="M1343.36,-18C1390.91,-18 1460.55,-18 1511.23,-18"/>
<polygon fill="black" stroke="black" points="1511.19,-21.5 1521.19,-18 1511.19,-14.5 1511.19,-21.5"/>
</g>
<!-- act_9 -->
<g id="node11" class="node">
<title>act_9</title>
<path fill="#e6f7ff" stroke="black" d="M1799.9,-36C1799.9,-36 1715.9,-36 1715.9,-36 1709.9,-36 1703.9,-30 1703.9,-24 1703.9,-24 1703.9,-12 1703.9,-12 1703.9,-6 1709.9,0 1715.9,0 1715.9,0 1799.9,0 1799.9,0 1805.9,0 1811.9,-6 1811.9,-12 1811.9,-12 1811.9,-24 1811.9,-24 1811.9,-30 1805.9,-36 1799.9,-36"/>
<text xml:space="preserve" text-anchor="middle" x="1757.9" y="-13.72" font-family="Arial" font-size="12.00">Pay invoice</text>
</g>
<!-- act_8&#45;&gt;act_9 -->
<g id="edge11" class="edge">
<title>act_8&#45;&gt;act_9</title>
<path fill="none" stroke="black" d="M1631.12,-18C1650.34,-18 1672.23,-18 1692.32,-18"/>
<polygon fill="black" stroke="black" points="1692.06,-21.5 1702.06,-18 1692.06,-14.5 1692.06,-21.5"/>
</g>
<!-- act_9&#45;&gt;Gateway_Merge_gate_2_11 -->
<g id="edge13" class="edge">
<title>act_9&#45;&gt;Gateway_Merge_gate_2_11</title>
<path fill="none" stroke="black" d="M1785.68,-36.44C1803.58,-48.77 1827.65,-65.36 1848.9,-80 1861.24,-88.5 1874.92,-97.94 1886.43,-105.88"/>
<polygon fill="black" stroke="black" points="1884.45,-108.76 1894.66,-111.56 1888.42,-103 1884.45,-108.76"/>
</g>
<!-- Gateway_Merge_gate_2_11&#45;&gt;Gateway_Merge_gate_1_14 -->
<g id="edge15" class="edge">
<title>Gateway_Merge_gate_2_11&#45;&gt;Gateway_Merge_gate_1_14</title>
<path fill="none" stroke="black" d="M1934.23,-132.96C1955.41,-142.68 1989.45,-158.29 2013.87,-169.5"/>
<polygon fill="black" stroke="black" points="2012.08,-172.53 2022.63,-173.52 2015,-166.17 2012.08,-172.53"/>
</g>
<!-- EndEvent_1 -->
<g id="node15" class="node">
<title>EndEvent_1</title>
<ellipse fill="#ffcccc" stroke="black" stroke-width="3" cx="2171.7" cy="-183" rx="21.6" ry="21.6"/>
<ellipse fill="none" stroke="black" stroke-width="3" cx="2171.7" cy="-183" rx="25.6" ry="25.6"/>
<text xml:space="preserve" text-anchor="middle" x="2171.7" y="-179.5" font-family="Arial" font-size="10.00">End</text>
</g>
<!-- Gateway_Merge_gate_1_14&#45;&gt;EndEvent_1 -->
<g id="edge16" class="edge">
<title>Gateway_Merge_gate_1_14&#45;&gt;EndEvent_1</title>
<path fill="none" stroke="black" d="M2073.76,-183C2091.47,-183 2114.44,-183 2133.58,-183"/>
<polygon fill="black" stroke="black" points="2133.4,-186.5 2143.4,-183 2133.4,-179.5 2133.4,-186.5"/>
</g>
<!-- StartEvent_1 -->
<g id="node14" class="node">
<title>StartEvent_1</title>
<ellipse fill="#e6ffcc" stroke="black" cx="21.6" cy="-188" rx="21.6" ry="21.6"/>
<text xml:space="preserve" text-anchor="middle" x="21.6" y="-184.5" font-family="Arial" font-size="10.00">Start</text>
</g>
<!-- StartEvent_1&#45;&gt;act_1 -->
<g id="edge1" class="edge">
<title>StartEvent_1&#45;&gt;act_1</title>
<path fill="none" stroke="black" d="M43.6,-188C59.65,-188 82.67,-188 104.63,-188"/>
<polygon fill="black" stroke="black" points="104.47,-191.5 114.47,-188 104.47,-184.5 104.47,-191.5"/>
</g>
</g>
</svg>
